<?xml version="1.0" standalone="no"?>
<!DOCTYPE svg PUBLIC "-//W3C//DTD SVG 20010904//EN"
 "http://www.w3.org/TR/2001/REC-SVG-20010904/DTD/svg10.dtd">
<svg version="1.0" xmlns="http://www.w3.org/2000/svg"
 width="552.000000pt" height="452.000000pt" viewBox="0 0 552.000000 452.000000"
 preserveAspectRatio="xMidYMid meet">

<g transform="translate(0.000000,452.000000) scale(0.100000,-0.100000)"
fill="#000000" stroke="none">
<path d="M1280 4494 c0 -7 269 -544 280 -559 4 -5 101 -194 215 -420 114 -225
263 -518 331 -650 178 -347 417 -816 547 -1072 61 -123 115 -223 118 -223 3 0
77 141 164 313 87 171 161 317 165 322 4 6 116 226 250 490 133 264 268 530
300 590 32 61 131 254 220 430 89 176 216 425 282 553 l119 232 -1496 0 c-822
0 -1495 -3 -1495 -6z m1420 -634 l0 -510 -22 -5 c-13 -3 -41 -4 -63 -2 l-40 3
-3 422 -2 422 -378 0 -377 0 -27 50 c-16 28 -28 52 -28 55 0 3 182 5 405 5
l405 0 0 35 0 35 65 0 65 0 0 -510z m270 475 l0 -35 405 0 c223 0 405 -3 405
-6 0 -4 -12 -28 -27 -55 l-26 -49 -379 0 -378 0 0 -425 0 -425 -49 0 c-89 0
-81 -50 -81 514 0 277 3 506 7 509 3 4 33 7 65 7 l58 0 0 -35z m-1195 -307
c76 -150 209 -412 295 -583 87 -170 233 -461 326 -645 l169 -335 3 73 3 72 59
0 60 0 0 -307 c0 -185 -4 -303 -9 -297 -5 5 -132 252 -281 549 -150 297 -409
811 -577 1143 l-304 602 59 0 59 0 138 -272z m2245 269 c0 -1 -44 -90 -98
-197 -477 -943 -882 -1748 -962 -1907 -52 -106 -98 -193 -102 -193 -5 0 -8
137 -8 305 l0 305 60 0 60 0 0 -72 c0 -42 4 -68 9 -62 7 8 292 569 786 1546
l140 278 58 0 c31 0 57 -1 57 -3z m-1689 -157 c5 0 7 -11 3 -25 -6 -25 -5 -25
55 -25 l61 0 -6 -42 -7 -41 31 6 c29 6 32 4 32 -18 0 -22 -3 -24 -32 -18 l-31
6 7 -41 6 -42 -61 0 c-52 0 -60 -2 -57 -17 2 -14 15 -19 61 -21 42 -2 57 -7
57 -17 0 -12 -14 -15 -60 -15 -54 0 -60 -2 -60 -21 0 -20 4 -21 70 -17 62 3
70 2 70 -14 0 -16 -10 -18 -70 -18 l-70 0 0 -30 c0 -23 -4 -30 -20 -30 -16 0
-20 7 -20 30 l0 30 -65 0 c-55 0 -65 3 -65 18 0 15 8 17 65 14 60 -3 65 -2 65
17 0 19 -6 21 -60 21 -46 0 -60 3 -60 15 0 10 15 15 57 17 46 2 59 7 61 21 3
14 -5 17 -52 17 -49 0 -56 2 -56 20 0 18 7 20 55 20 49 0 55 2 55 21 0 19 -5
20 -65 17 -59 -3 -65 -1 -65 17 0 18 6 20 65 17 65 -4 65 -4 65 23 l0 28 -60
-7 c-56 -7 -60 -6 -60 14 0 18 6 20 60 20 l60 0 0 31 c0 24 3 30 16 25 9 -3
20 -6 25 -6z m1040 -10 c-2 -8 -6 -32 -9 -52 l-4 -38 96 0 96 0 0 -120 c0
-113 -1 -120 -20 -120 -11 0 -20 7 -20 15 0 12 -15 15 -76 15 l-77 0 5 -100
c5 -96 4 -100 -16 -100 -20 0 -21 4 -18 100 l4 100 -71 0 c-64 0 -71 -2 -71
-20 0 -15 -7 -20 -25 -20 l-25 0 0 125 0 125 95 0 95 0 0 56 c0 52 1 55 23 52
14 -2 20 -9 18 -18z m-1221 -52 c0 -7 -13 -43 -29 -80 l-29 -68 38 0 39 0 -6
-37 c-2 -21 -11 -62 -19 -92 -9 -29 -14 -54 -12 -55 52 -37 76 -47 133 -57 41
-7 100 -9 147 -5 60 5 78 4 78 -6 -1 -37 -15 -40 -141 -36 -125 4 -173 17
-222 57 -17 14 -21 12 -55 -26 -32 -36 -40 -40 -59 -31 -22 11 -22 12 23 53
l45 43 -30 43 c-26 39 -28 46 -15 59 13 13 16 13 24 0 5 -8 15 -24 23 -35 14
-18 15 -17 26 20 20 71 17 78 -29 71 -32 -5 -42 -3 -47 10 -3 9 -1 19 5 23 5
3 21 32 35 64 l26 57 -50 0 c-34 0 -49 4 -49 13 0 23 11 27 82 27 48 0 68 -4
68 -12z m580 -828 c0 -46 -3 -51 -27 -61 -29 -11 -93 -67 -93 -81 0 -4 75 -8
167 -8 l167 0 -38 39 c-22 22 -52 45 -67 52 -26 10 -29 16 -29 60 0 58 8 60
79 24 66 -33 125 -103 150 -178 12 -33 21 -65 21 -69 0 -4 -130 -8 -290 -8
l-289 0 6 33 c16 85 80 173 157 217 75 43 86 41 86 -20z m320 -333 c0 -45 -38
-116 -89 -168 -93 -92 -198 -111 -308 -55 -62 32 -106 78 -137 146 -45 97 -65
90 254 90 225 0 280 -3 280 -13z"/>
<path d="M2330 4035 c0 -22 4 -25 35 -25 31 0 35 3 35 25 0 22 -4 25 -35 25
-31 0 -35 -3 -35 -25z"/>
<path d="M2330 3960 c0 -16 7 -20 35 -20 28 0 35 4 35 20 0 16 -7 20 -35 20
-28 0 -35 -4 -35 -20z"/>
<path d="M3190 3930 l0 -71 68 3 67 3 3 68 3 67 -71 0 -70 0 0 -70z"/>
<path d="M3362 3933 l3 -68 73 -3 72 -3 0 71 0 70 -75 0 -76 0 3 -67z"/>
<path d="M2641 2824 c54 -59 152 -72 224 -29 24 13 45 31 49 40 5 13 -14 15
-146 15 l-151 0 24 -26z"/>
<path d="M833 1300 c-4 -16 -15 -20 -67 -22 -55 -3 -61 -5 -64 -25 -3 -22 0
-23 62 -23 l66 0 0 -35 0 -35 -80 0 c-79 0 -80 0 -80 -25 0 -25 1 -25 81 -25
l80 0 -3 -32 -3 -33 -60 -1 c-56 -1 -60 -3 -60 -24 0 -21 4 -23 60 -24 60 -1
60 -1 60 -31 l0 -30 -67 -3 c-65 -3 -68 -4 -68 -27 0 -24 2 -25 70 -25 l70 0
0 -30 0 -30 -80 0 c-79 0 -80 0 -80 -25 0 -24 2 -25 75 -25 61 0 76 -3 84 -18
13 -24 49 -25 61 -1 9 17 22 19 105 19 94 0 95 0 95 25 0 24 -1 24 -97 27
l-98 3 -3 28 -3 27 90 0 c90 0 91 0 91 25 0 24 -2 24 -87 27 l-88 3 0 30 0 30
82 5 c45 3 85 8 89 12 4 5 8 25 10 45 1 21 2 41 3 46 1 4 10 7 21 7 15 0 20 7
20 25 0 18 -5 25 -20 25 -23 0 -32 28 -28 80 l3 35 -89 3 c-78 2 -89 5 -93 22
-7 27 -53 27 -60 0z m181 -86 c4 -9 4 -25 0 -36 -5 -16 -14 -19 -62 -16 -58 3
-73 16 -58 54 8 21 112 20 120 -2z m0 -120 c3 -8 1 -24 -5 -35 -8 -17 -19 -20
-62 -17 -53 3 -67 17 -53 54 8 21 112 20 120 -2z"/>
<path d="M1558 1312 c-24 -3 -27 -8 -30 -50 l-3 -47 -135 -5 -135 -5 -3 -197
-2 -198 135 0 c155 0 143 9 147 -110 3 -64 3 -64 33 -64 l30 0 5 84 5 85 127
3 c91 2 129 6 137 16 8 9 11 73 9 197 l-3 184 -137 3 -138 3 0 49 c0 54 -3 57
-42 52z m-39 -186 c8 -9 11 -52 9 -127 l-3 -114 -97 -3 c-54 -1 -98 1 -98 5
-5 67 -1 233 4 241 11 18 170 16 185 -2z m286 -116 l0 -125 -100 0 -100 0 -3
114 c-1 63 0 121 2 128 4 11 29 13 103 11 l98 -3 0 -125z"/>
<path d="M2286 1276 c-21 -25 -36 -54 -36 -70 0 -22 4 -26 29 -26 43 0 46 -15
13 -58 -73 -94 -69 -114 25 -110 l68 3 3 43 c2 32 0 42 -12 42 -8 0 -16 -10
-18 -22 -2 -13 -11 -24 -22 -26 -38 -8 -36 15 9 72 56 73 57 86 7 86 -21 0
-41 3 -45 6 -3 4 7 26 23 50 35 50 36 54 11 54 -11 0 -36 -19 -55 -44z"/>
<path d="M2430 1140 l0 -179 -92 -3 c-85 -3 -93 -5 -93 -23 0 -15 8 -21 33
-23 36 -4 36 -2 21 -91 -14 -89 -27 -121 -50 -121 -14 0 -19 -7 -19 -25 0 -22
4 -25 33 -25 45 0 66 26 74 89 10 86 31 80 52 -15 13 -55 38 -81 67 -70 16 6
20 46 4 46 -14 0 -37 49 -45 98 -5 32 -11 42 -25 42 -25 0 -33 15 -26 46 5 20
13 24 41 24 31 0 36 -4 55 -46 22 -52 25 -74 9 -74 -20 0 -5 -45 16 -48 13 -2
28 -19 40 -45 l20 -42 68 -3 c66 -3 68 -2 65 20 -2 19 -10 23 -45 26 -65 5
-88 62 -24 62 38 0 51 17 51 67 0 36 -3 43 -20 43 -13 0 -20 -7 -20 -19 0 -25
-26 -51 -51 -51 -14 0 -26 14 -39 46 -11 25 -20 50 -20 54 0 5 39 11 87 12 74
3 88 6 91 20 2 12 -5 21 -21 27 -13 5 -27 17 -30 25 -9 23 -48 20 -54 -5 -5
-17 -12 -20 -47 -17 l-41 3 -3 178 -2 177 -30 0 -30 0 0 -180z"/>
<path d="M2602 1311 c-24 -7 -82 -86 -82 -113 0 -14 8 -18 34 -18 19 0 37 -4
41 -9 3 -5 -13 -31 -35 -56 -59 -68 -52 -80 40 -80 l75 0 3 44 c2 32 0 42 -10
39 -7 -3 -14 -14 -16 -26 -3 -17 -10 -22 -31 -22 -15 0 -31 3 -34 6 -3 4 14
30 38 59 25 29 45 57 45 64 0 6 -18 11 -45 11 -25 0 -45 4 -45 8 0 4 14 27 30
49 32 43 30 54 -8 44z"/>
<path d="M3678 1283 l-3 -38 -52 -3 c-51 -3 -53 -4 -53 -33 0 -29 1 -29 55
-29 l55 0 0 -270 0 -270 25 0 25 0 0 269 0 270 48 3 c43 3 47 5 50 30 3 26 1
27 -45 30 -48 3 -48 3 -51 41 -3 31 -7 37 -27 37 -20 0 -24 -6 -27 -37z"/>
<path d="M4013 1300 c-5 -18 -14 -20 -74 -20 -73 0 -81 -4 -72 -38 5 -22 9
-22 190 -22 l184 0 -3 28 c-3 26 -5 27 -74 30 -62 2 -73 6 -77 22 -7 28 -67
28 -74 0z"/>
<path d="M2098 1273 l-3 -38 -70 -5 c-67 -5 -70 -6 -70 -30 0 -24 3 -25 70
-30 l70 -5 3 -262 c2 -254 3 -263 22 -263 19 0 20 9 22 263 l3 262 35 5 c29 4
35 9 35 30 0 21 -6 26 -35 30 -32 5 -35 8 -38 43 -2 28 -8 37 -22 37 -14 0
-20 -9 -22 -37z"/>
<path d="M4646 1265 l6 -45 -32 0 c-28 0 -31 -3 -28 -27 3 -26 7 -28 51 -31
46 -3 47 -4 41 -30 -13 -55 -29 -77 -57 -80 -23 -3 -28 -8 -25 -25 4 -32 80
-37 120 -7 17 13 40 20 56 18 l27 -3 0 -165 0 -165 -27 -3 c-22 -3 -28 -9 -28
-28 0 -22 4 -24 49 -24 28 0 53 6 59 13 7 8 13 68 14 143 l3 129 45 3 c65 5
70 13 70 103 l0 79 -30 0 -30 0 0 -61 c0 -60 0 -60 -27 -57 -25 3 -28 7 -31
46 l-3 42 -54 0 c-59 0 -69 7 -59 45 l6 25 303 0 c291 0 303 1 329 21 14 11
26 25 26 30 0 5 -98 9 -236 9 l-236 0 5 23 c3 12 9 32 12 45 7 20 4 22 -27 22
-30 0 -36 -5 -53 -42 l-20 -43 -67 -3 -68 -3 -12 46 c-11 42 -14 45 -46 45
l-33 0 7 -45z"/>
<path d="M2790 1276 c0 -21 5 -25 38 -28 42 -3 42 -2 17 -98 -10 -41 -26 -73
-41 -87 -13 -12 -24 -33 -24 -48 0 -20 5 -25 25 -25 l24 0 3 -157 3 -158 95
-3 c66 -2 101 1 112 10 16 12 18 37 19 218 l1 205 -72 3 -72 3 6 51 c11 81 17
87 94 90 59 3 67 5 67 23 0 19 -8 20 -147 23 l-148 3 0 -25z m205 -381 l0
-160 -47 -3 -48 -3 0 159 c0 87 3 162 7 166 4 4 25 6 48 4 l40 -3 0 -160z"/>
<path d="M3120 1276 c0 -18 6 -25 23 -28 21 -3 22 -7 25 -115 2 -86 0 -113
-10 -114 -7 -1 -20 -2 -28 -3 -10 -1 -15 -12 -15 -31 0 -25 4 -30 28 -33 l27
-3 0 -113 c0 -119 -6 -136 -47 -136 -18 0 -23 -6 -23 -25 0 -25 2 -26 57 -23
77 4 83 16 83 176 l0 122 55 0 55 0 0 -156 0 -155 33 3 32 3 3 152 3 152 52 3
c50 3 52 4 52 33 0 29 -1 30 -50 30 l-50 0 -3 113 c-3 107 -1 114 18 119 13 3
20 14 20 29 l0 24 -170 0 -170 0 0 -24z m228 -143 c2 -100 1 -112 -15 -116
-15 -5 -61 -4 -85 1 -10 2 -10 216 -1 226 4 4 28 6 53 4 l45 -3 3 -112z"/>
<path d="M4370 959 l0 -330 28 3 c21 2 28 9 30 31 3 25 6 27 52 27 75 0 80 10
80 151 0 78 -4 126 -12 139 -10 16 -10 24 0 40 8 13 12 63 12 145 l0 125 -95
0 -95 0 0 -331z m135 248 c3 -12 5 -56 3 -97 l-3 -75 -37 -3 -38 -3 0 100 0
101 35 0 c28 0 36 -5 40 -23z m-6 -251 c8 -9 11 -47 9 -107 l-3 -94 -37 -3
-38 -3 0 110 0 111 29 0 c16 0 34 -6 40 -14z"/>
<path d="M342 1253 l3 -28 118 -3 c64 -1 117 -6 117 -9 0 -4 -27 -48 -61 -99
-40 -61 -59 -100 -57 -116 3 -21 7 -23 58 -20 74 4 85 -4 65 -51 -8 -20 -21
-38 -28 -38 -6 -1 -30 -2 -52 -3 -36 -1 -40 -4 -43 -28 -3 -26 -1 -28 37 -28
22 0 42 -4 45 -9 7 -11 -21 -80 -42 -103 -13 -16 -38 -18 -235 -18 l-220 0 23
-25 23 -25 222 0 c240 0 242 0 259 58 10 32 23 27 46 -18 l20 -40 240 0 240 0
0 25 0 25 -212 0 c-117 0 -218 4 -225 8 -11 7 -63 113 -63 130 0 5 9 38 20 72
11 34 20 76 20 91 0 29 -1 29 -60 29 -33 0 -60 4 -60 10 0 6 27 49 60 97 43
61 60 95 58 113 l-3 25 -158 3 -158 3 3 -28z"/>
<path d="M3928 1140 c-6 -19 -19 -32 -34 -36 -17 -4 -24 -13 -24 -30 0 -20 5
-24 33 -24 17 0 37 4 43 8 12 8 38 55 48 90 7 20 4 22 -24 22 -26 0 -33 -5
-42 -30z"/>
<path d="M4090 1158 c0 -7 9 -32 20 -55 20 -45 44 -57 96 -51 23 2 29 8 29 27
0 20 -5 24 -28 25 -30 2 -47 19 -47 49 0 13 -8 17 -35 17 -21 0 -35 -5 -35
-12z"/>
<path d="M3596 1118 c-3 -7 -7 -87 -11 -178 -4 -119 -10 -171 -20 -187 -23
-35 -19 -63 9 -63 13 0 29 7 36 16 13 15 28 201 29 357 1 61 -1 67 -19 67 -11
0 -22 -6 -24 -12z"/>
<path d="M3776 933 c4 -109 11 -208 15 -220 11 -30 54 -32 62 -3 3 10 -1 24
-8 30 -8 6 -14 57 -19 147 -10 212 -15 243 -38 243 -19 0 -19 -6 -12 -197z"/>
<path d="M2025 941 c-5 -127 -11 -185 -21 -198 -20 -26 -17 -53 5 -53 32 0 39
21 45 135 4 61 9 152 12 203 6 87 5 92 -14 92 -18 0 -20 -10 -27 -179z"/>
<path d="M2177 1113 c-6 -10 10 -296 18 -330 4 -16 13 -23 30 -23 29 0 31 14
10 57 -10 19 -18 79 -23 163 -4 86 -11 135 -19 137 -6 2 -13 0 -16 -4z"/>
<path d="M3886 988 c4 -7 32 -46 61 -85 29 -40 53 -78 53 -84 0 -27 -62 -98
-96 -109 -28 -9 -34 -17 -32 -33 2 -18 11 -23 41 -25 46 -4 77 14 107 62 12
20 25 36 30 36 4 0 24 -22 44 -50 l36 -50 80 0 c79 0 80 0 80 25 0 24 -3 25
-54 25 l-55 0 -45 59 -46 60 53 78 c29 43 57 84 61 91 5 9 -4 12 -33 12 -38 0
-43 -3 -77 -55 -20 -30 -42 -55 -48 -55 -6 1 -28 25 -49 55 -35 51 -41 55 -78
55 -29 0 -38 -3 -33 -12z"/>
<path d="M4678 943 c-9 -19 -22 -29 -41 -31 -23 -3 -27 -8 -27 -33 0 -27 3
-29 38 -29 46 0 78 21 86 57 4 16 9 36 12 46 4 13 -1 17 -25 17 -23 0 -33 -6
-43 -27z"/>
<path d="M4904 868 c3 -13 12 -59 21 -103 9 -49 22 -85 32 -92 10 -8 48 -13
95 -13 l78 0 0 30 0 30 -65 0 c-75 0 -78 3 -95 103 -12 65 -13 67 -41 67 -25
0 -29 -3 -25 -22z"/>
<path d="M4689 780 c-6 -16 -18 -31 -27 -31 -10 -1 -28 -2 -42 -3 -20 -1 -26
-7 -28 -29 l-3 -28 63 3 c61 3 63 4 80 38 33 71 33 80 -2 80 -26 0 -33 -5 -41
-30z"/>
<path d="M830 400 c-18 -18 -20 -33 -20 -139 0 -154 -3 -151 167 -151 l123 0
0 25 0 25 -110 0 c-128 0 -123 -6 -118 125 l3 80 115 5 c63 3 114 8 113 13 -2
4 -3 14 -3 22 0 13 -21 15 -125 15 -112 0 -127 -2 -145 -20z"/>
<path d="M1362 268 l3 -153 27 -3 c27 -3 27 -3 30 65 l3 68 36 3 c35 3 39 -1
89 -67 47 -64 55 -71 86 -71 19 0 34 2 34 6 0 3 -25 36 -55 74 -30 38 -55 74
-55 81 0 6 19 35 43 63 77 92 74 86 34 86 -33 0 -42 -7 -89 -65 -81 -102 -128
-100 -128 6 0 59 0 59 -30 59 l-31 0 3 -152z"/>
<path d="M2092 268 l3 -153 30 0 c30 0 30 0 33 63 l3 63 87 -3 87 -3 3 -62 c3
-62 3 -63 32 -63 30 0 30 1 30 57 0 45 -5 62 -22 80 l-22 23 22 16 c17 12 22
25 22 59 0 71 -10 75 -171 75 l-140 0 3 -152z m237 88 c7 -8 11 -27 9 -43 l-3
-28 -87 -3 -88 -3 0 39 c0 21 3 42 7 45 13 14 150 8 162 -7z"/>
<path d="M2850 290 c0 -80 -4 -130 -10 -130 -5 0 -10 -11 -10 -25 0 -21 5 -25
28 -25 15 0 34 6 40 12 10 10 17 10 32 0 29 -17 131 -15 158 4 19 13 22 24 22
90 0 100 -16 117 -103 112 -34 -2 -70 -8 -79 -12 -16 -7 -18 -2 -18 48 0 56 0
56 -30 56 l-30 0 0 -130z m196 -12 c10 -16 8 -108 -3 -119 -6 -6 -37 -9 -69
-7 l-59 3 -3 54 c-2 29 -1 60 2 67 7 18 121 20 132 2z"/>
<path d="M3550 370 c0 -36 -4 -52 -15 -56 -8 -4 -15 -12 -15 -19 0 -7 7 -15
15 -19 11 -4 15 -22 15 -75 0 -85 7 -91 104 -91 59 0 66 2 66 20 0 17 -7 20
-49 20 -54 0 -64 8 -68 55 -5 66 2 75 62 75 42 0 55 3 55 15 0 12 -13 15 -55
15 -49 0 -55 2 -60 23 -4 13 -5 37 -3 53 3 25 -1 29 -24 32 -27 3 -28 2 -28
-48z"/>
<path d="M3830 405 c0 -12 8 -16 33 -13 17 2 32 8 32 13 0 6 -15 11 -32 13
-25 3 -33 -1 -33 -13z"/>
<path d="M2506 314 c-12 -11 -16 -36 -16 -90 0 -103 12 -114 123 -114 118 0
127 8 127 115 0 103 -2 105 -129 105 -68 0 -93 -4 -105 -16z m179 -94 l0 -65
-70 0 -70 0 -3 54 c-5 80 -3 82 75 79 l68 -3 0 -65z"/>
<path d="M3207 312 c-13 -14 -17 -38 -17 -90 0 -101 13 -112 123 -112 118 0
127 8 127 115 0 103 -3 105 -128 105 -73 0 -92 -3 -105 -18z m178 -92 l0 -65
-64 -3 c-74 -3 -81 2 -81 65 0 71 4 74 79 71 l66 -3 0 -65z"/>
<path d="M4027 312 c-13 -14 -17 -38 -17 -95 0 -98 10 -107 127 -107 76 0 83
2 83 20 0 17 -8 19 -72 22 l-73 3 0 65 0 65 73 3 c64 3 72 5 72 22 0 18 -7 20
-88 20 -73 0 -92 -3 -105 -18z"/>
<path d="M4304 316 c-3 -7 -4 -33 -2 -57 l3 -44 89 -3 c96 -3 125 -14 104 -39
-9 -11 -33 -14 -102 -12 l-91 3 -3 -27 -3 -27 120 0 c66 0 122 4 125 9 13 20
9 103 -5 112 -8 5 -48 9 -89 8 -41 0 -81 0 -88 0 -9 1 -12 11 -10 29 3 27 3
27 86 28 86 2 99 5 87 23 -10 17 -214 14 -221 -3z"/>
<path d="M3837 314 c-4 -4 -7 -52 -7 -106 l0 -98 30 0 30 0 0 95 c0 52 0 98 0
103 1 10 -44 15 -53 6z"/>
<path d="M1200 140 c0 -27 3 -30 30 -30 27 0 30 3 30 30 0 27 -3 30 -30 30
-27 0 -30 -3 -30 -30z"/>
<path d="M1780 141 c0 -29 3 -31 34 -31 32 0 35 2 33 28 -2 23 -7 27 -35 30
-30 3 -32 1 -32 -27z"/>
</g>
</svg>
